<?xml version="1.0" standalone="no"?>
<!DOCTYPE svg PUBLIC "-//W3C//DTD SVG 20010904//EN"
 "http://www.w3.org/TR/2001/REC-SVG-20010904/DTD/svg10.dtd">
<svg version="1.0" xmlns="http://www.w3.org/2000/svg"
 width="700.000000pt" height="700.000000pt" viewBox="0 0 700.000000 700.000000"
 preserveAspectRatio="xMidYMid meet">
<metadata>
Created by potrace 1.14, written by Peter Selinger 2001-2017
</metadata>
<g transform="translate(0.000000,700.000000) scale(0.100000,-0.100000)"
fill="#000000" stroke="none">
<path d="M5066 6488 c-77 -5 -105 -12 -130 -29 -65 -44 -84 -124 -47 -197 39
-76 77 -93 221 -98 485 -15 773 -108 958 -308 114 -124 180 -311 175 -496 -8
-292 -342 -628 -753 -758 -143 -45 -200 -55 -261 -44 -70 13 -263 7 -454 -13
-27 -3 -70 -8 -95 -10 -25 -2 -63 -7 -85 -10 -22 -4 -51 -8 -65 -10 -91 -14
-173 -29 -225 -42 -33 -8 -67 -16 -76 -18 -8 -2 -105 -26 -215 -53 -109 -28
-217 -53 -239 -57 -39 -5 -56 -8 -115 -20 -14 -2 -45 -7 -70 -10 -25 -3 -61
-7 -80 -10 -148 -19 -363 -25 -440 -12 -19 3 -53 9 -75 13 -55 10 -165 55
-231 96 -218 131 -409 466 -564 983 -44 146 -92 260 -142 333 -17 24 -80 101
-141 171 -62 71 -130 155 -152 187 -128 190 -284 374 -318 374 -34 0 -49 -45
-56 -165 l-6 -115 -55 72 c-74 97 -145 168 -170 168 -26 0 -37 -45 -34 -130 6
-138 26 -208 89 -306 24 -37 31 -56 23 -59 -7 -2 -62 -20 -123 -40 -103 -34
-173 -69 -220 -112 -11 -10 -43 -37 -71 -60 -54 -45 -93 -111 -114 -193 -13
-47 -12 -46 -223 -247 -92 -87 -116 -127 -110 -183 6 -44 8 -49 190 -359 61
-103 89 -123 188 -135 241 -28 277 -50 290 -179 6 -58 24 -213 30 -267 11 -92
37 -297 39 -315 2 -11 6 -45 10 -75 4 -30 11 -80 16 -110 5 -30 11 -71 14 -90
8 -53 44 -262 51 -290 2 -14 10 -50 16 -80 5 -30 12 -66 15 -80 28 -139 88
-334 141 -459 33 -77 126 -248 143 -261 3 -3 17 -21 30 -40 14 -19 38 -49 55
-66 101 -102 133 -149 158 -234 55 -182 63 -306 32 -465 -9 -49 -19 -101 -21
-115 -15 -92 -49 -231 -66 -274 -24 -61 -77 -149 -115 -192 -43 -48 -57 -54
-178 -74 -137 -23 -161 -29 -184 -49 -49 -43 -63 -166 -25 -229 33 -56 67 -62
354 -59 292 2 289 2 332 90 14 28 113 256 219 505 106 248 193 451 195 450 1
-2 5 -16 8 -33 18 -102 56 -242 112 -417 43 -134 43 -139 29 -175 -23 -57 -56
-76 -138 -80 -116 -6 -155 -50 -155 -173 0 -77 10 -106 46 -136 35 -31 72 -35
287 -32 153 3 185 6 208 20 52 35 52 32 53 483 0 433 4 520 29 665 15 82 50
229 57 235 2 1 55 5 119 9 64 3 123 8 130 10 8 3 30 7 49 10 40 6 212 34 250
41 36 6 330 55 360 60 45 6 115 17 130 20 36 6 99 15 145 21 28 3 57 7 65 9 8
2 51 7 95 11 44 3 88 8 99 10 10 2 74 6 141 10 l122 6 11 -29 c24 -61 104
-330 117 -391 2 -9 10 -48 19 -87 25 -115 27 -134 31 -270 4 -123 -7 -226 -34
-325 -49 -181 -65 -195 -239 -204 -165 -8 -202 -37 -202 -158 0 -75 24 -122
72 -142 48 -21 402 -20 446 1 25 12 47 42 104 142 91 162 203 381 252 496 36
83 110 299 120 349 3 11 10 46 16 76 23 110 28 140 36 208 13 109 5 107 119
45 110 -60 383 -222 485 -288 36 -23 88 -56 115 -74 95 -61 159 -202 159 -352
0 -122 -16 -169 -75 -224 -56 -53 -82 -64 -165 -75 -104 -13 -144 -58 -144
-161 0 -60 14 -96 47 -125 36 -31 63 -33 313 -33 237 1 262 6 293 59 14 24 68
195 82 260 2 8 12 51 23 95 25 98 49 213 58 280 3 28 8 59 10 70 8 39 5 181
-5 230 -22 111 -70 233 -127 322 -43 68 -68 97 -223 259 -128 133 -172 198
-196 289 -19 72 -23 150 -30 570 -3 176 -7 336 -10 355 -37 354 -71 497 -171
709 -30 62 -33 76 -21 82 58 33 248 200 364 319 277 287 434 614 427 890 -12
536 -283 896 -803 1067 -58 19 -144 40 -191 47 -92 14 -399 17 -564 4z"/>
</g>
</svg>
